<?xml version="1.0" encoding="UTF-8" standalone="no"?>
<svg
   viewBox="0 0 48 48"
   style="clip-rule:evenodd;fill-rule:evenodd;stroke-linejoin:round;stroke-miterlimit:2"
   version="1.1"
   id="svg3"
   sodipodi:docname="folder-videos.svg"
   inkscape:version="1.4.3 (0d15f75042, 2025-12-25)"
   xml:space="preserve"
   xmlns:inkscape="http://www.inkscape.org/namespaces/inkscape"
   xmlns:sodipodi="http://sodipodi.sourceforge.net/DTD/sodipodi-0.dtd"
   xmlns="http://www.w3.org/2000/svg"
   xmlns:svg="http://www.w3.org/2000/svg"><sodipodi:namedview
     id="namedview3"
     pagecolor="#ffffff"
     bordercolor="#999999"
     borderopacity="1"
     inkscape:showpageshadow="2"
     inkscape:pageopacity="0"
     inkscape:pagecheckerboard="0"
     inkscape:deskcolor="#d1d1d1"
     inkscape:zoom="8.0000004"
     inkscape:cx="2.7499999"
     inkscape:cy="38.249998"
     inkscape:window-width="1920"
     inkscape:window-height="1012"
     inkscape:window-x="0"
     inkscape:window-y="0"
     inkscape:window-maximized="1"
     inkscape:current-layer="g8"
     showguides="false" /><defs
     id="defs2"><inkscape:path-effect
   effect="fillet_chamfer"
   id="path-effect2"
   is_visible="true"
   lpeversion="1"
   nodesatellites_param="F,0,0,1,0,2,0,1 @ F,0,0,1,0,2,0,1 @ F,0,0,1,0,2,0,1"
   radius="2"
   unit="px"
   method="auto"
   mode="F"
   chamfer_steps="1"
   flexible="false"
   use_knot_distance="true"
   apply_no_radius="true"
   apply_with_radius="true"
   only_selected="false"
   hide_knots="false" /><inkscape:path-effect
   effect="fillet_chamfer"
   id="path-effect8"
   is_visible="true"
   lpeversion="1"
   nodesatellites_param="F,0,0,1,0,1.8999406,0,1 @ F,0,0,1,0,1.8999406,0,1 @ F,0,0,1,0,1.8999406,0,1 @ F,0,0,1,0,1.8999406,0,1 @ F,0,0,1,0,1.8999406,0,1"
   radius="2"
   unit="px"
   method="auto"
   mode="F"
   chamfer_steps="1"
   flexible="false"
   use_knot_distance="true"
   apply_no_radius="true"
   apply_with_radius="true"
   only_selected="false"
   hide_knots="false" /><inkscape:path-effect
   effect="fillet_chamfer"
   id="path-effect6"
   is_visible="true"
   lpeversion="1"
   nodesatellites_param="F,0,0,1,0,0,0,1 @ F,0,0,1,0,0,0,1 @ F,0,0,1,0,0,0,1 @ F,0,0,1,0,0,0,1 @ F,0,0,1,0,0,0,1"
   radius="0"
   unit="px"
   method="auto"
   mode="F"
   chamfer_steps="1"
   flexible="false"
   use_knot_distance="true"
   apply_no_radius="true"
   apply_with_radius="true"
   only_selected="false"
   hide_knots="false" /><inkscape:path-effect
   effect="fillet_chamfer"
   id="path-effect1"
   is_visible="true"
   lpeversion="1"
   nodesatellites_param="F,0,0,1,0,1.8999406,0,1 @ F,0,0,1,0,1.8999406,0,1 @ F,0,0,1,0,1.8999406,0,1 @ F,0,0,1,0,1.8999406,0,1 @ F,0,0,1,0,1.8999406,0,1"
   radius="2"
   unit="px"
   method="auto"
   mode="F"
   chamfer_steps="1"
   flexible="false"
   use_knot_distance="true"
   apply_no_radius="true"
   apply_with_radius="true"
   only_selected="false"
   hide_knots="false" /><linearGradient
   id="linearGradient4"
   x1="0"
   y1="0"
   x2="1"
   y2="0"
   gradientUnits="userSpaceOnUse"
   gradientTransform="matrix(2.54933e-15,-41.6338,41.6338,2.54933e-15,445.153,52.7218)"><stop
     style="stop-color:#0b4f94;stop-opacity:1;"
     offset="0"
     id="stop3" /><stop
     style="stop-color:#126c98;stop-opacity:1;"
     offset="1"
     id="stop4" /></linearGradient><linearGradient
   id="front-gradient"
   x1="0"
   y1="0"
   x2="1"
   y2="0"
   gradientUnits="userSpaceOnUse"
   gradientTransform="matrix(2.54933e-15,-41.6338,41.6338,2.54933e-15,445.153,52.7218)"><stop
     style="stop-color:#1075f6"
     offset="0"
     id="stop1" /><stop
     style="stop-color:#12c5ff"
     offset="1"
     id="stop2" /></linearGradient>
		
	
	

	
	
	
	
	
	
	
	
	
	
	
	
	
	
	
	
	
<linearGradient
   id="_Linear2"
   x2="1"
   gradientTransform="matrix(0,-12.88605,12.88605,0,683.12925,30.90345)"
   gradientUnits="userSpaceOnUse"><stop
     style="stop-color:rgb(11,78,148)"
     offset="0"
     id="stop5" /><stop
     style="stop-color:rgb(19,110,152)"
     offset="1"
     id="stop6" /></linearGradient></defs><g
     id="directory-group"
     transform="scale(.75)"
     inkscape:label="base"><path
       d="m61.122 15.88c0-2.762-2.239-5-5-5h-48.244c-2.761 0-5 2.238-5 5v32.246c0 2.761 2.239 5 5 5h48.244c2.761 0 5-2.239 5-5v-32.246z"
       style="fill:#0083d5; fill-opacity:1"
       id="path2" /><path
       d="m61.122 20.652c0-1.326-0.527-2.598-1.465-3.536-0.938-0.937-2.209-1.464-3.535-1.464h-25.58c-1.232 0-2.42-0.455-3.337-1.277-0.768-0.689-1.713-1.535-2.481-2.224-0.917-0.822-2.105-1.277-3.337-1.277h-13.509c-1.326 0-2.597 0.527-3.535 1.465-0.938 0.937-1.465 2.209-1.465 3.535v32.252c0 2.761 2.239 5 5 5h48.244c2.761 0 5-2.239 5-5v-27.474z"
       style="fill:url(#front-gradient); fill-opacity:1"
       id="path3" /></g><g
     id="g8"
     inkscape:label="glyph"><path
       id="path4"
       style="clip-rule:evenodd;fill-rule:evenodd;stroke-linejoin:round;stroke-miterlimit:2;fill:#000000;stroke-width:0.75;fill-opacity:1"
       d="m 13.373047,19.392578 v 8.103516 c 0,1.0245 0.406359,2.005969 1.130859,2.730468 0.7245,0.724501 1.708672,1.13086 2.732422,1.13086 h 11.841797 v -4.273438 c 1.105732,0.718708 3.923589,2.547795 5.136719,3.335938 0.114,0.07425 0.258453,0.07922 0.376953,0.01172 0.1185,-0.06675 0.191406,-0.193282 0.191406,-0.332032 v -9.447265 c 0,-0.14025 -0.07531,-0.269938 -0.195312,-0.335938 -0.12075,-0.06675 -0.26686,-0.05967 -0.38086,0.01758 -1.212101,0.823102 -4.005572,2.719913 -5.128906,3.482422 v -0.5625 c 0,-1.0245 -0.408313,-2.006719 -1.132813,-2.730468 -0.7245,-0.724501 -1.705968,-1.13086 -2.730468,-1.13086 z" /></g></svg>
