<?xml version="1.0" encoding="UTF-8" standalone="no"?>
<svg
   viewBox="0 0 48 48"
   style="clip-rule:evenodd;fill-rule:evenodd;stroke-linejoin:round;stroke-miterlimit:2"
   version="1.1"
   id="svg3"
   sodipodi:docname="folder-pictures.svg"
   inkscape:version="1.4.3 (0d15f75042, 2025-12-25)"
   xml:space="preserve"
   xmlns:inkscape="http://www.inkscape.org/namespaces/inkscape"
   xmlns:sodipodi="http://sodipodi.sourceforge.net/DTD/sodipodi-0.dtd"
   xmlns="http://www.w3.org/2000/svg"
   xmlns:svg="http://www.w3.org/2000/svg"><sodipodi:namedview
     id="namedview3"
     pagecolor="#ffffff"
     bordercolor="#999999"
     borderopacity="1"
     inkscape:showpageshadow="2"
     inkscape:pageopacity="0"
     inkscape:pagecheckerboard="0"
     inkscape:deskcolor="#d1d1d1"
     inkscape:zoom="11.844039"
     inkscape:cx="28.115408"
     inkscape:cy="31.914788"
     inkscape:window-width="1920"
     inkscape:window-height="1012"
     inkscape:window-x="0"
     inkscape:window-y="0"
     inkscape:window-maximized="1"
     inkscape:current-layer="g1"
     showguides="false" /><defs
     id="defs2"><linearGradient
   id="linearGradient4"
   x1="0"
   y1="0"
   x2="1"
   y2="0"
   gradientUnits="userSpaceOnUse"
   gradientTransform="matrix(2.54933e-15,-41.6338,41.6338,2.54933e-15,445.153,52.7218)"><stop
     style="stop-color:#0b4f94;stop-opacity:1;"
     offset="0"
     id="stop3" /><stop
     style="stop-color:#126c98;stop-opacity:1;"
     offset="1"
     id="stop4" /></linearGradient><linearGradient
   id="front-gradient"
   x1="0"
   y1="0"
   x2="1"
   y2="0"
   gradientUnits="userSpaceOnUse"
   gradientTransform="matrix(2.54933e-15,-41.6338,41.6338,2.54933e-15,445.153,52.7218)"><stop
     style="stop-color:#1075f6"
     offset="0"
     id="stop1" /><stop
     style="stop-color:#12c5ff"
     offset="1"
     id="stop2" /></linearGradient>
		
	
	
</defs><g
     id="directory-group"
     transform="scale(.75)"
     inkscape:label="base"><path
       d="m61.122 15.88c0-2.762-2.239-5-5-5h-48.244c-2.761 0-5 2.238-5 5v32.246c0 2.761 2.239 5 5 5h48.244c2.761 0 5-2.239 5-5v-32.246z"
       style="fill:#0083d5; fill-opacity:1"
       id="path2" /><path
       d="m61.122 20.652c0-1.326-0.527-2.598-1.465-3.536-0.938-0.937-2.209-1.464-3.535-1.464h-25.58c-1.232 0-2.42-0.455-3.337-1.277-0.768-0.689-1.713-1.535-2.481-2.224-0.917-0.822-2.105-1.277-3.337-1.277h-13.509c-1.326 0-2.597 0.527-3.535 1.465-0.938 0.937-1.465 2.209-1.465 3.535v32.252c0 2.761 2.239 5 5 5h48.244c2.761 0 5-2.239 5-5v-27.474z"
       style="fill:url(#front-gradient); fill-opacity:1"
       id="path3" /></g><g
     id="g1"
     inkscape:label="glyph"><path
       d="m 27.114681,23.875822 c 0.321319,0 0.620448,0.164027 0.793113,0.435001 l 7.04768,11.06021 c 0.184515,0.289594 0.196545,0.656729 0.0314,0.957734 -0.165143,0.301006 -0.481191,0.488161 -0.824517,0.488161 h -20.32472 c -0.343386,0 -0.659436,-0.187093 -0.824515,-0.488161 -0.165145,-0.301068 -0.153114,-0.668203 0.03139,-0.957734 l 4.833382,-7.585201 c 0.172667,-0.270973 0.471734,-0.43507 0.793114,-0.43507 0.321381,0 0.620447,0.164097 0.793111,0.43507 l 2.321604,3.643293 4.535827,-7.118302 c 0.172666,-0.271036 0.471732,-0.435001 0.793113,-0.435001 z"
       style="stroke-width:0.0626962"
       id="path9" /><path
       d="m 19.116556,15.186645 c -2.454502,0 -4.451401,1.99697 -4.451401,4.451472 0,2.454502 1.996899,4.451404 4.451401,4.451404 2.454501,0 4.451475,-1.996902 4.451475,-4.451404 0,-2.454502 -1.996975,-4.451472 -4.451475,-4.451472 z"
       style="stroke-width:0.0626962"
       id="path8" /></g></svg>
