<?xml version="1.0" encoding="UTF-8" standalone="no"?>
<svg
   viewBox="0 0 48 48"
   style="clip-rule:evenodd;fill-rule:evenodd;stroke-linejoin:round;stroke-miterlimit:2"
   version="1.1"
   id="svg3"
   sodipodi:docname="folder-music.svg"
   inkscape:version="1.4.3 (0d15f75042, 2025-12-25)"
   xmlns:inkscape="http://www.inkscape.org/namespaces/inkscape"
   xmlns:sodipodi="http://sodipodi.sourceforge.net/DTD/sodipodi-0.dtd"
   xmlns="http://www.w3.org/2000/svg"
   xmlns:svg="http://www.w3.org/2000/svg">
  <sodipodi:namedview
     id="namedview3"
     pagecolor="#ffffff"
     bordercolor="#999999"
     borderopacity="1"
     inkscape:showpageshadow="2"
     inkscape:pageopacity="0"
     inkscape:pagecheckerboard="0"
     inkscape:deskcolor="#d1d1d1"
     inkscape:zoom="16.750001"
     inkscape:cx="23.134328"
     inkscape:cy="26.507462"
     inkscape:window-width="1920"
     inkscape:window-height="1012"
     inkscape:window-x="0"
     inkscape:window-y="0"
     inkscape:window-maximized="1"
     inkscape:current-layer="directory-group" />
  <defs
     id="defs2">
    <linearGradient
       id="linearGradient4"
       x1="0"
       y1="0"
       x2="1"
       y2="0"
       gradientUnits="userSpaceOnUse"
       gradientTransform="matrix(2.54933e-15,-41.6338,41.6338,2.54933e-15,445.153,52.7218)">
      <stop
         style="stop-color:#0b4f94;stop-opacity:1;"
         offset="0"
         id="stop3" />
      <stop
         style="stop-color:#126c98;stop-opacity:1;"
         offset="1"
         id="stop4" />
    </linearGradient>
    <linearGradient
       id="front-gradient"
       x1="0"
       y1="0"
       x2="1"
       y2="0"
       gradientUnits="userSpaceOnUse"
       gradientTransform="matrix(2.54933e-15,-41.6338,41.6338,2.54933e-15,445.153,52.7218)">
      <stop
         style="stop-color:#7c3aed;stop-opacity:1;"
         offset="0"
         id="stop1" />
      <stop
         style="stop-color:#a57cff;stop-opacity:1;"
         offset="1"
         id="stop2" />
    </linearGradient>
  </defs>
  <g
     id="directory-group"
     transform="scale(.75)"
     inkscape:label="base">
    <path
       d="m61.122 15.88c0-2.762-2.239-5-5-5h-48.244c-2.761 0-5 2.238-5 5v32.246c0 2.761 2.239 5 5 5h48.244c2.761 0 5-2.239 5-5v-32.246z"
       style="fill:#6a4cc3;fill-opacity:1"
       id="path2" />
    <path
       d="m61.122 20.652c0-1.326-0.527-2.598-1.465-3.536-0.938-0.937-2.209-1.464-3.535-1.464h-25.58c-1.232 0-2.42-0.455-3.337-1.277-0.768-0.689-1.713-1.535-2.481-2.224-0.917-0.822-2.105-1.277-3.337-1.277h-13.509c-1.326 0-2.597 0.527-3.535 1.465-0.938 0.937-1.465 2.209-1.465 3.535v32.252c0 2.761 2.239 5 5 5h48.244c2.761 0 5-2.239 5-5v-27.474z"
       style="fill:url(#front-gradient); fill-opacity:1"
       id="path3" />
  </g>
  <g
     id="g1"
     inkscape:label="glyph">
    <path
       d="m 30.338362,31.979145 a 62.638382,62.631116 0 0 0 1.687506,-2.682932 0.73567197,0.73567197 0 0 0 -0.05631,-0.817413 c -0.46865,-0.622143 -1.365989,-1.884592 -1.85462,-3.053493 -0.502255,-1.199781 -0.577639,-3.0653 -0.581272,-3.975353 a 1.5503606,1.5503606 0 0 0 -0.325149,-0.953649 l -2.904542,-3.691076 a 3.4004393,3.4004393 0 0 1 -0.06903,0.493173 c -0.09627,0.456843 -0.278828,0.91187 -0.486815,1.362356 -0.121703,0.263388 -0.263388,0.544942 -0.405073,0.830128 l -0.281554,0.568557 c -0.46865,0.969997 -0.905512,2.022643 -1.028124,3.26057 -0.112622,1.144379 0.04178,2.479487 0.740213,4.069811 0.116254,0.01 0.233417,0.02271 0.35058,0.03996 a 5.7791121,5.7791121 0 0 1 3.020796,1.366897 c 0.831945,0.717507 1.583965,1.745631 2.193392,3.178829 z M 20.20607,35.640247 c 0.0663,0.0109 0.132603,0.01817 0.199812,0.01817 0.708425,0.0218 1.902757,0.08356 2.870029,0.263389 0.790166,0.145318 2.355059,0.581272 3.642031,0.95819 0.98362,0.287003 1.996305,-0.497714 2.138898,-1.511306 0.103539,-0.739305 0.299718,-1.575792 0.658472,-2.343252 l -0.0091,0.0045 c -0.608519,-1.698403 -1.382337,-2.795553 -2.1943,-3.495804 a 4.8091149,4.8091149 0 0 0 -2.523083,-1.141653 c -1.398685,-0.196179 -2.681115,0.172565 -3.48763,0.408707 0.483182,2.014469 0.334231,4.385875 -1.294238,6.839932 z M 17.78471,24.168306 c -0.02089,0.09082 -0.05086,0.178924 -0.08901,0.26339 l -2.375039,5.29593 a 1.4549957,1.4549957 0 0 0 0.284278,1.609396 l 3.738303,3.850924 c 1.910022,-2.816442 1.631194,-5.467586 0.759286,-7.538367 -0.661196,-1.57125 -1.66389,-2.798278 -2.316004,-3.479456 z m 3.439494,3.698341 c 0.558566,-0.166207 1.458628,-0.422329 2.49311,-0.484998 -0.620325,-1.566708 -0.770185,-2.936331 -0.650297,-4.157001 0.139868,-1.409583 0.635766,-2.585751 1.121672,-3.587536 0.102631,-0.213436 0.202537,-0.41234 0.297903,-0.60307 0.135327,-0.269746 0.261572,-0.524052 0.380551,-0.781084 0.197088,-0.426871 0.344221,-0.803789 0.417788,-1.153461 0.07266,-0.34513 0.07266,-0.65393 -0.01272,-0.947291 -0.08628,-0.295177 -0.269746,-0.61306 -0.617601,-0.96273 a 1.4531792,1.4531792 0 0 0 -1.33965,0.326964 l -4.495773,4.043471 a 1.4549957,1.4549957 0 0 0 -0.465924,0.864642 l -0.387818,2.570311 c 0.610336,0.53586 2.114376,2.103477 3.02897,4.278705 0.08174,0.190729 0.158941,0.390541 0.229784,0.593078 z"
       id="path1"
       style="stroke-width:0.908237" />
  </g>
</svg>
