<?xml version="1.0" encoding="UTF-8" standalone="no"?>
<svg
   viewBox="0 0 48 48"
   style="clip-rule:evenodd;fill-rule:evenodd;stroke-linejoin:round;stroke-miterlimit:2"
   version="1.1"
   id="svg3"
   sodipodi:docname="folder-music.svg"
   inkscape:version="1.4.3 (0d15f75042, 2025-12-25)"
   xmlns:inkscape="http://www.inkscape.org/namespaces/inkscape"
   xmlns:sodipodi="http://sodipodi.sourceforge.net/DTD/sodipodi-0.dtd"
   xmlns="http://www.w3.org/2000/svg"
   xmlns:svg="http://www.w3.org/2000/svg">
  <sodipodi:namedview
     id="namedview3"
     pagecolor="#ffffff"
     bordercolor="#999999"
     borderopacity="1"
     inkscape:showpageshadow="2"
     inkscape:pageopacity="0"
     inkscape:pagecheckerboard="0"
     inkscape:deskcolor="#d1d1d1"
     inkscape:zoom="11.844039"
     inkscape:cx="18.068161"
     inkscape:cy="26.257934"
     inkscape:window-width="1920"
     inkscape:window-height="1012"
     inkscape:window-x="0"
     inkscape:window-y="0"
     inkscape:window-maximized="1"
     inkscape:current-layer="g1"
     showguides="false" />
  <defs
     id="defs2">
    <linearGradient
       id="linearGradient4"
       x1="0"
       y1="0"
       x2="1"
       y2="0"
       gradientUnits="userSpaceOnUse"
       gradientTransform="matrix(2.54933e-15,-41.6338,41.6338,2.54933e-15,445.153,52.7218)">
      <stop
         style="stop-color:#0b4f94;stop-opacity:1;"
         offset="0"
         id="stop3" />
      <stop
         style="stop-color:#126c98;stop-opacity:1;"
         offset="1"
         id="stop4" />
    </linearGradient>
    <linearGradient
       id="front-gradient"
       x1="0"
       y1="0"
       x2="1"
       y2="0"
       gradientUnits="userSpaceOnUse"
       gradientTransform="matrix(2.54933e-15,-41.6338,41.6338,2.54933e-15,445.153,52.7218)">
      <stop
         style="stop-color:#1075f6"
         offset="0"
         id="stop1" />
      <stop
         style="stop-color:#12c5ff"
         offset="1"
         id="stop2" />
    </linearGradient>
  </defs>
  <g
     id="directory-group"
     transform="scale(.75)"
     inkscape:label="base">
    <path
       d="m61.122 15.88c0-2.762-2.239-5-5-5h-48.244c-2.761 0-5 2.238-5 5v32.246c0 2.761 2.239 5 5 5h48.244c2.761 0 5-2.239 5-5v-32.246z"
       style="fill:#0083d5; fill-opacity:1"
       id="path2" />
    <path
       d="m61.122 20.652c0-1.326-0.527-2.598-1.465-3.536-0.938-0.937-2.209-1.464-3.535-1.464h-25.58c-1.232 0-2.42-0.455-3.337-1.277-0.768-0.689-1.713-1.535-2.481-2.224-0.917-0.822-2.105-1.277-3.337-1.277h-13.509c-1.326 0-2.597 0.527-3.535 1.465-0.938 0.937-1.465 2.209-1.465 3.535v32.252c0 2.761 2.239 5 5 5h48.244c2.761 0 5-2.239 5-5v-27.474z"
       style="fill:url(#front-gradient); fill-opacity:1"
       id="path3" />
  </g>
  <g
     id="g1"
     inkscape:label="glyph">
    <path
       d="m 23.980684,16.019107 v 12.387801 c -0.913945,-0.35053 -2.268341,-0.240458 -3.437382,0.185316 -2.093998,0.763455 -3.341985,2.617047 -2.785911,4.140287 0.556074,1.523241 2.92903,2.229799 5.050556,1.552599 2.185759,-0.702893 3.007967,-2.257294 3.007967,-4.042974 v -8.717341 c 2.884982,0.455137 3.147427,4.55136 2.760193,6.458163 -0.150489,0.737763 0.194564,0.701058 0.534082,0 4.165971,-8.588876 -3.294275,-7.641886 -3.294275,-11.963851 z"
       id="path36"
       style="stroke-width:1.83523" />
  </g>
</svg>
