<?xml version="1.0" encoding="UTF-8" standalone="no"?>
<svg
   viewBox="0 0 48 48"
   style="clip-rule:evenodd;fill-rule:evenodd;stroke-linejoin:round;stroke-miterlimit:2"
   version="1.1"
   id="svg3"
   sodipodi:docname="folder-obsidian.svg"
   inkscape:version="1.4.3 (0d15f75042, 2025-12-25)"
   xmlns:inkscape="http://www.inkscape.org/namespaces/inkscape"
   xmlns:sodipodi="http://sodipodi.sourceforge.net/DTD/sodipodi-0.dtd"
   xmlns="http://www.w3.org/2000/svg"
   xmlns:svg="http://www.w3.org/2000/svg">
  <sodipodi:namedview
     id="namedview3"
     pagecolor="#ffffff"
     bordercolor="#999999"
     borderopacity="1"
     inkscape:showpageshadow="2"
     inkscape:pageopacity="0"
     inkscape:pagecheckerboard="0"
     inkscape:deskcolor="#d1d1d1"
     inkscape:zoom="11.844039"
     inkscape:cx="21.529818"
     inkscape:cy="31.239343"
     inkscape:window-width="1920"
     inkscape:window-height="1012"
     inkscape:window-x="0"
     inkscape:window-y="0"
     inkscape:window-maximized="1"
     inkscape:current-layer="g1" />
  <defs
     id="defs2">
    <linearGradient
       id="linearGradient4"
       x1="0"
       y1="0"
       x2="1"
       y2="0"
       gradientUnits="userSpaceOnUse"
       gradientTransform="matrix(2.54933e-15,-41.6338,41.6338,2.54933e-15,445.153,52.7218)">
      <stop
         style="stop-color:#0b4f94;stop-opacity:1;"
         offset="0"
         id="stop3" />
      <stop
         style="stop-color:#126c98;stop-opacity:1;"
         offset="1"
         id="stop4" />
    </linearGradient>
    <linearGradient
       id="front-gradient"
       x1="0"
       y1="0"
       x2="1"
       y2="0"
       gradientUnits="userSpaceOnUse"
       gradientTransform="matrix(2.54933e-15,-41.6338,41.6338,2.54933e-15,445.153,52.7218)">
      <stop
         style="stop-color:#7c3aed;stop-opacity:1;"
         offset="0"
         id="stop1" />
      <stop
         style="stop-color:#a57cff;stop-opacity:1;"
         offset="1"
         id="stop2" />
    </linearGradient>
  </defs>
  <g
     id="directory-group"
     transform="scale(.75)"
     inkscape:label="base">
    <path
       d="m61.122 15.88c0-2.762-2.239-5-5-5h-48.244c-2.761 0-5 2.238-5 5v32.246c0 2.761 2.239 5 5 5h48.244c2.761 0 5-2.239 5-5v-32.246z"
       style="fill:#6a4cc3;fill-opacity:1"
       id="path2" />
    <path
       d="m61.122 20.652c0-1.326-0.527-2.598-1.465-3.536-0.938-0.937-2.209-1.464-3.535-1.464h-25.58c-1.232 0-2.42-0.455-3.337-1.277-0.768-0.689-1.713-1.535-2.481-2.224-0.917-0.822-2.105-1.277-3.337-1.277h-13.509c-1.326 0-2.597 0.527-3.535 1.465-0.938 0.937-1.465 2.209-1.465 3.535v32.252c0 2.761 2.239 5 5 5h48.244c2.761 0 5-2.239 5-5v-27.474z"
       style="fill:url(#front-gradient); fill-opacity:1"
       id="path3" />
  </g>
  <g
     id="g1"
     inkscape:label="glyph">
    <path
       d="m 30.336671,31.738835 a 62.622517,62.615254 0 0 0 1.687078,-2.682253 0.73548564,0.73548564 0 0 0 -0.0563,-0.817205 C 31.498922,27.617392 30.60181,26.355261 30.113303,25.186657 29.611175,23.98718 29.535809,22.122133 29.532178,21.212311 a 1.5499679,1.5499679 0 0 0 -0.325066,-0.953408 l -2.903807,-3.69014 a 3.3995781,3.3995781 0 0 1 -0.06902,0.493047 c -0.09624,0.456727 -0.278757,0.911639 -0.486692,1.362011 -0.121672,0.263321 -0.263321,0.544805 -0.40497,0.829918 l -0.281483,0.568413 c -0.468532,0.969751 -0.905283,2.022131 -1.027863,3.259743 -0.112594,1.144089 0.04176,2.478859 0.740025,4.068782 0.116225,0.01 0.233359,0.0227 0.350491,0.03994 a 5.7776484,5.7776484 0 0 1 3.020031,1.366552 c 0.831734,0.717325 1.583564,1.745189 2.192837,3.178023 z M 20.206943,35.39901 c 0.06628,0.01087 0.132571,0.01817 0.199762,0.01817 0.708246,0.02179 1.902276,0.08354 2.869303,0.263323 0.789965,0.145282 2.354462,0.581124 3.641108,0.957947 0.983371,0.286931 1.9958,-0.497588 2.138357,-1.510923 0.103517,-0.739117 0.299642,-1.575392 0.658305,-2.342659 l -0.0091,0.0046 C 29.096312,31.091495 28.322691,29.994623 27.510933,29.294549 A 4.8078969,4.8078969 0 0 0 24.98849,28.153186 c -1.398331,-0.19613 -2.680437,0.172521 -3.486748,0.408603 0.483061,2.01396 0.334148,4.384764 -1.29391,6.838199 z M 17.786198,23.929974 c -0.02089,0.09079 -0.05085,0.178879 -0.08898,0.263323 l -2.374437,5.294589 a 1.4546271,1.4546271 0 0 0 0.284205,1.608988 l 3.737357,3.84995 c 1.909538,-2.81573 1.630781,-5.466202 0.759094,-7.536458 -0.661029,-1.570853 -1.663469,-2.79757 -2.315418,-3.478576 z m 3.438622,3.697404 c 0.558425,-0.166164 1.45826,-0.422222 2.492479,-0.484875 -0.620167,-1.566311 -0.76999,-2.935587 -0.650132,-4.155948 0.139833,-1.409226 0.635605,-2.585096 1.121387,-3.586627 0.102609,-0.213381 0.202486,-0.412236 0.297828,-0.602918 0.135294,-0.269677 0.261506,-0.523918 0.380455,-0.780886 0.197038,-0.426762 0.344133,-0.803585 0.417683,-1.153168 0.07264,-0.345043 0.07264,-0.653765 -0.01271,-0.947052 -0.08626,-0.295101 -0.269679,-0.612905 -0.617446,-0.962486 A 1.4528112,1.4528112 0 0 0 23.31505,15.2803 l -4.494634,4.042446 a 1.4546271,1.4546271 0 0 0 -0.465805,0.864423 l -0.387721,2.56966 c 0.610182,0.535724 2.113842,2.102945 3.028204,4.277621 0.08172,0.190681 0.1589,0.390443 0.229726,0.592928 z"
       id="path1"
       style="stroke-width:0.908007" />
  </g>
</svg>
