<?xml version="1.0" encoding="UTF-8" standalone="no"?>
<svg
   viewBox="0 0 48 48"
   style="clip-rule:evenodd;fill-rule:evenodd;stroke-linejoin:round;stroke-miterlimit:2"
   version="1.1"
   id="svg3"
   sodipodi:docname="folder-outer.svg"
   inkscape:version="1.4.3 (0d15f75042, 2025-12-25)"
   xmlns:inkscape="http://www.inkscape.org/namespaces/inkscape"
   xmlns:sodipodi="http://sodipodi.sourceforge.net/DTD/sodipodi-0.dtd"
   xmlns:xlink="http://www.w3.org/1999/xlink"
   xmlns="http://www.w3.org/2000/svg"
   xmlns:svg="http://www.w3.org/2000/svg">
  <sodipodi:namedview
     id="namedview3"
     pagecolor="#ffffff"
     bordercolor="#999999"
     borderopacity="1"
     inkscape:showpageshadow="2"
     inkscape:pageopacity="0"
     inkscape:pagecheckerboard="0"
     inkscape:deskcolor="#d1d1d1"
     inkscape:zoom="5.9220193"
     inkscape:cx="25.413629"
     inkscape:cy="24.653753"
     inkscape:window-width="1920"
     inkscape:window-height="1012"
     inkscape:window-x="0"
     inkscape:window-y="0"
     inkscape:window-maximized="1"
     inkscape:current-layer="svg3" />
  <defs
     id="defs2">
    <linearGradient
       id="base-gradient"
       x1="0"
       y1="0"
       x2="1"
       y2="0"
       gradientUnits="userSpaceOnUse"
       gradientTransform="matrix(2.54933e-15,-41.6338,41.6338,2.54933e-15,445.153,52.7218)">
      <stop
         style="stop-color:#1075f6"
         offset="0"
         id="stop1" />
      <stop
         style="stop-color:#12c5ff"
         offset="1"
         id="stop2" />
    </linearGradient>
    <linearGradient
       inkscape:collect="always"
       xlink:href="#base-gradient"
       id="linearGradient6"
       gradientUnits="userSpaceOnUse"
       gradientTransform="matrix(0,-41.6338,-41.6338,0,-381.153,52.7218)"
       x1="0"
       y1="0"
       x2="1"
       y2="0" />
  </defs>
  <g
     id="base"
     transform="scale(.75)"
     inkscape:label="base">
    <path
       d="m 61.122,20.652 c 0,-1.326 -0.527,-2.598 -1.465,-3.536 -0.938,-0.937 -2.209,-1.464 -3.535,-1.464 h -25.58 c -1.232,0 -2.42,-0.455 -3.337,-1.277 -0.768,-0.689 -1.713,-1.535 -2.481,-2.224 -0.917,-0.822 -2.105,-1.277 -3.337,-1.277 H 7.878 c -1.326,0 -2.597,0.527 -3.535,1.465 -0.938,0.937 -1.465,2.209 -1.465,3.535 v 32.252 c 0,2.761 2.239,5 5,5 h 48.244 c 2.761,0 5,-2.239 5,-5 z"
       style="clip-rule:evenodd;fill-rule:evenodd;stroke-linejoin:round;stroke-miterlimit:2;fill:#0083d5;fill-opacity:1"
       id="path7" />
    <path
       d="m 2.878,25.424 c 0,-1.326 0.527,-2.598 1.465,-3.536 0.938,-0.937 2.2090001,-1.464532 3.535,-1.464 l 14.967,0.006 c 1.232,4.94e-4 2.42,-0.455 3.337,-1.277 0.768,-0.689 1.713,-1.535 2.481,-2.224 0.917,-0.822 2.105,-1.276694 3.337,-1.277 l 24.122,-0.006 c 1.326,-3.3e-4 2.597,0.527 3.535,1.465 0.938,0.937 1.465,2.209 1.465,3.535 v 27.48 c 0,2.761 -2.239,5 -5,5 H 7.878 c -2.761,0 -5,-2.239 -5,-5 z"
       style="fill:url(#base-gradient);fill-opacity:1"
       id="path3"
       sodipodi:nodetypes="scssccsscssssss" />
  </g>
</svg>
